<?xml version="1.0" standalone="no"?>
<!DOCTYPE svg PUBLIC "-//W3C//DTD SVG 20010904//EN"
 "http://www.w3.org/TR/2001/REC-SVG-20010904/DTD/svg10.dtd">
<svg version="1.0" xmlns="http://www.w3.org/2000/svg"
 width="512.000000pt" height="512.000000pt" viewBox="0 0 512.000000 512.000000"
 preserveAspectRatio="xMidYMid meet">

<g transform="translate(0.000000,512.000000) scale(0.100000,-0.100000)"
fill="#000000" stroke="none">
<path d="M1775 5110 c-154 -20 -371 -103 -475 -183 -25 -18 -62 -37 -82 -41
-127 -24 -251 -135 -290 -261 -31 -99 -26 -340 10 -530 l20 -99 -48 -43 c-61
-55 -85 -123 -78 -228 4 -56 11 -84 32 -119 29 -49 82 -91 129 -100 15 -3 38
-8 51 -11 20 -4 26 -15 36 -57 17 -75 90 -222 144 -292 l46 -59 0 -88 c0 -81
-2 -89 -22 -100 -13 -6 -75 -62 -138 -124 l-115 -113 -215 -82 c-224 -86 -278
-110 -320 -142 -107 -82 -171 -177 -201 -298 l-21 -82 31 -791 c18 -445 36
-804 42 -819 23 -57 105 -59 130 -4 9 18 3 223 -20 813 -29 726 -31 853 -12
853 4 0 68 -62 143 -137 148 -151 181 -201 198 -304 6 -39 10 -294 10 -646 l0
-582 26 -20 c31 -24 43 -26 79 -9 16 7 29 25 36 47 7 24 9 234 7 641 -4 592
-4 606 -26 671 -33 100 -86 171 -251 334 l-151 149 28 29 c15 16 41 37 57 47
28 17 441 180 457 180 4 0 79 -107 167 -237 87 -131 169 -248 182 -260 56 -51
168 -69 229 -38 28 14 30 14 30 -2 1 -10 -14 -357 -32 -772 l-32 -754 28 -23
c15 -13 33 -24 41 -24 29 0 64 23 74 49 5 14 21 312 35 661 15 349 29 663 32
698 l6 62 84 0 c80 0 84 -1 84 -22 0 -138 63 -1395 70 -1409 15 -28 47 -41 81
-34 64 14 62 -19 30 746 -17 382 -32 725 -34 762 -4 66 -4 68 17 62 46 -15
137 -17 169 -5 65 26 95 62 252 298 88 133 163 242 168 242 4 0 85 -30 180
-66 94 -37 184 -67 199 -67 56 -1 89 70 55 117 -7 9 -100 51 -207 92 l-195 76
-115 113 c-64 63 -128 119 -143 124 -26 10 -27 12 -27 97 0 85 0 87 38 133 71
86 122 187 163 321 8 25 21 46 29 47 95 12 152 49 190 122 41 82 33 220 -16
295 -26 39 -26 40 -15 124 15 102 15 309 1 396 -57 355 -284 589 -645 662 -88
18 -328 26 -420 14z m345 -155 c356 -54 550 -261 579 -620 7 -83 -2 -282 -14
-313 -3 -8 -18 -12 -41 -10 -35 3 -36 5 -76 101 -52 126 -55 127 -195 103
-219 -38 -455 -38 -608 -1 -117 29 -243 95 -321 170 -61 58 -73 66 -103 63
-45 -4 -77 -44 -67 -85 4 -15 34 -54 66 -85 116 -114 248 -179 441 -218 156
-32 427 -29 617 6 21 4 32 2 32 -5 0 -7 16 -47 36 -90 44 -97 71 -116 161
-113 35 2 72 -2 82 -8 44 -23 52 -148 11 -185 -10 -9 -38 -19 -62 -22 -92 -12
-124 -46 -157 -166 -138 -505 -763 -665 -1117 -286 -87 94 -122 157 -159 286
-21 76 -31 93 -66 126 -33 30 -49 37 -81 37 -30 0 -46 7 -69 29 -25 25 -29 37
-29 84 0 102 60 137 135 77 50 -40 79 -46 121 -26 75 35 184 161 184 212 0 38
-33 68 -75 68 -32 0 -43 -6 -64 -34 -14 -19 -37 -47 -51 -63 l-26 -29 -44 23
c-25 12 -46 23 -48 25 -10 7 -44 219 -51 323 -14 200 8 292 83 359 32 28 116
62 154 62 7 0 42 20 77 45 204 146 468 203 745 160z m-505 -2084 c201 -66 443
-44 632 58 l53 29 0 -81 -1 -82 -200 -175 c-110 -96 -209 -181 -219 -188 -18
-13 -39 3 -240 179 l-220 192 0 79 0 79 68 -35 c37 -19 94 -44 127 -55z m-82
-366 c119 -104 217 -192 217 -196 0 -3 -45 -49 -99 -102 -100 -97 -120 -108
-166 -91 -9 4 -89 115 -177 247 l-160 240 63 63 c61 61 63 62 84 46 11 -9 119
-102 238 -207z m1037 93 c0 -13 -302 -462 -319 -475 -9 -7 -29 -13 -45 -13
-23 0 -48 19 -128 97 -54 53 -97 101 -95 107 2 5 106 101 233 212 l229 202 63
-61 c34 -34 62 -65 62 -69z m-630 -520 l0 -59 -77 3 -77 3 3 55 c2 48 7 60 39
93 l36 37 38 -37 c35 -35 38 -41 38 -95z"/>
<path d="M3270 2294 c-42 -18 -95 -68 -118 -109 -12 -21 -18 -65 -22 -150 l-5
-120 -285 -5 c-323 -6 -339 -9 -419 -89 -75 -75 -101 -161 -101 -336 0 -128
15 -210 49 -279 l30 -61 3 -450 3 -450 33 -68 c24 -49 48 -79 84 -107 92 -74
43 -71 1099 -68 l944 3 50 23 c65 30 128 92 157 156 23 50 23 57 28 511 5 450
5 461 27 495 45 72 55 139 51 318 -3 143 -7 174 -25 213 -28 63 -87 125 -147
157 l-51 27 -286 3 -287 3 -3 112 c-5 138 -27 191 -104 247 l-49 35 -311 2
c-260 2 -316 0 -345 -13z m622 -148 c28 -21 38 -62 38 -152 l0 -84 -325 0
-325 0 0 99 c0 84 3 102 21 125 l20 26 277 0 c211 -1 281 -4 294 -14z m742
-400 c18 -8 46 -31 62 -52 28 -37 29 -40 32 -185 4 -165 -4 -205 -51 -275 -58
-87 -258 -225 -278 -193 -5 8 -9 19 -9 26 0 6 -10 19 -22 27 -18 13 -56 16
-207 16 -246 0 -231 13 -231 -205 0 -153 1 -164 26 -213 57 -114 197 -161 309
-105 78 40 125 114 133 211 l5 64 66 31 c36 17 89 46 118 64 29 18 55 33 58
33 3 0 4 -166 3 -369 -3 -355 -4 -371 -24 -397 -11 -15 -33 -37 -48 -48 -27
-21 -36 -21 -962 -24 -915 -2 -935 -2 -973 18 -21 10 -50 36 -62 57 -24 38
-24 40 -27 401 -2 199 0 362 4 362 3 0 32 -16 64 -35 31 -19 87 -49 124 -66
l66 -31 0 -59 c0 -139 93 -233 230 -233 99 0 179 50 215 137 l16 38 107 -8
c59 -4 158 -8 219 -8 102 0 114 2 134 22 29 29 30 80 2 103 -17 13 -53 18
-175 23 -84 4 -181 10 -215 13 l-63 7 0 67 c0 77 -14 126 -40 140 -10 6 -101
10 -202 10 -172 0 -186 -1 -206 -20 -12 -12 -22 -30 -22 -40 0 -27 -14 -25
-79 11 -86 48 -168 118 -207 176 -44 67 -57 136 -52 283 5 138 21 178 82 215
l41 25 1003 0 c835 0 1008 -2 1036 -14z m-1504 -866 c0 -98 -16 -142 -59 -159
-25 -11 -37 -11 -61 -1 -44 18 -50 37 -50 144 l0 96 85 0 85 0 0 -80z m1118
-20 c-3 -111 -15 -134 -74 -146 -24 -4 -37 0 -62 21 -32 27 -32 27 -32 126 l0
99 86 0 86 0 -4 -100z"/>
</g>
</svg>
